Genre:Animation | Adventure
Language:English
IMDb:http://www.imdb.com/title/tt1230204/
Source:DVD9 RUS/AUDIO CAMSTAiN.Thx

General
Complete name :Sammys Adventure The Secret Passage 2010 R5 H264 Feel-Free
Format : MPEG-4
Format profile : Base Media
Codec ID : isom
File size : 859 MiB
Duration : 1h 10mn
Overall bit rate : 1 703 Kbps
Video #2
Codec ID : avc1
Codec ID/Info : Advanced Video Coding
Duration : 1h 10mn
Bit rate mode : Variable
Bit rate : 1 538 Kbps
Width : 720 pixels
Height : 304 pixels
Display aspect ratio : 2.35:1
Frame rate mode : Constant
Frame rate : 29.970 fps
Original frame rate : 29.000 fps
Resolution : 24 bits
Colorimetry : 4:2:0
Scan type : Progressive
Bits/(Pixel*Frame) : 0.235
Stream size : 776 MiB (90%)
Audio #1
ID : 1
Format : AAC
Format/Info : Advanced Audio Codec
Format version : Version 4
Format profile : LC
Format settings, SBR : No
Codec ID : 40
Duration : 1h 10mn
Bit rate mode : Constant
Bit rate : 158 Kbps
Channel(s) : 2 channels
Channel positions : L R
Sampling rate : 48.0 KHz
Resolution : 16 bits
Stream size : 79.9 MiB (9%)

Plot:
A sea turtle who was hatched in 1959 spends the next 50 years traveling the world while it is being changed by global warming.






================================== 
http://thepiratebay.org/user/hiest
==================================






Screenshots:

 
http://img823.imageshack.us/img823/1966/sammysadventurethesecre.jpg
 
http://img526.imageshack.us/img526/1966/sammysadventurethesecre.jpg
 
http://img28.imageshack.us/img28/1966/sammysadventurethesecre.jpg
 
http://img121.imageshack.us/img121/4844/sammysadventurethesecrev.jpg
 
http://img811.imageshack.us/img811/1966/sammysadventurethesecre.jpg
 
http://img94.imageshack.us/img94/1966/sammysadventurethesecre.jpg